# xmcd
#
# Track frame offsets:
#	150
#	13365
#	25395
#	37925
#	51607
#	64902
#	76162
#	87575
#	97825
#	111070
#	119855
#	130587
#
# Disc length: 1867 seconds
#
# Revision: 0
# Processed by: cddbd v1.5.2PL0 Copyright (c) Steve Scherf et al.
# Submitted via: dBpowerAMP V4.0
#
DISCID=a207490c
DTITLE=Merle Haggard - I'm A Lonesome Fugitive
DYEAR=1967
DGENRE=Country
TTITLE0=I'm a Lonesome Fugitive
TTITLE1=All of Me Belongs to You
TTITLE2=House of Memories
TTITLE3=Life in Prison
TTITLE4=Whatever Happened to Me
TTITLE5=Drink Up and Be Somebody
TTITLE6=Someone Told My Story
TTITLE7=If you Want to Be My Woman
TTITLE8=Mary's Mine
TTITLE9=Skid Row
TTITLE10=My Rough and Rowdy Ways
TTITLE11=Mixed Up Mess of a Heart
EXTD=Contains Haggard's first #1 hit (I'm a Lonesome Fugitive) and many other greats. -Donald Braman
EXTT0=
EXTT1=
EXTT2=
EXTT3=
EXTT4=
EXTT5=
EXTT6=
EXTT7=
EXTT8=
EXTT9=
EXTT10=
EXTT11=
PLAYORDER=
